<?xml version="1.0" encoding="iso-8859-1"?>
<!-- Uploaded to: SVG Repo, www.svgrepo.com, Generator: SVG Repo Mixer Tools -->
<svg fill="#000000" version="1.1" id="Layer_1" xmlns="http://www.w3.org/2000/svg" xmlns:xlink="http://www.w3.org/1999/xlink" 
	 viewBox="0 0 512 512" xml:space="preserve">
<g>
	<g>
		<path d="M134.311,0v183.048h237.324l100.741,83.011v-83.011h38.109V0H134.311z M479.323,151.887h-38.109v48.118l-58.395-48.118
			H165.473V31.161h313.85V151.887z"/>
	</g>
</g>
<g>
	<g>
		<path d="M1.515,245.94v183.048h38.108V512l100.742-83.012h237.324V245.94H1.515z M346.526,397.827H129.18l-58.395,48.118v-48.118
			H32.676V277.101h313.85V397.827z"/>
	</g>
</g>
<g>
	<g>
		<rect x="227.187" y="73.053" width="31.161" height="31.161"/>
	</g>
</g>
<g>
	<g>
		<rect x="306.814" y="73.053" width="31.161" height="31.161"/>
	</g>
</g>
<g>
	<g>
		<rect x="386.452" y="73.053" width="31.161" height="31.161"/>
	</g>
</g>
<g>
	<g>
		<rect x="94.387" y="321.658" width="31.161" height="31.161"/>
	</g>
</g>
<g>
	<g>
		<rect x="174.025" y="321.658" width="31.161" height="31.161"/>
	</g>
</g>
<g>
	<g>
		<rect x="253.653" y="321.658" width="31.161" height="31.161"/>
	</g>
</g>
</svg>