<?xml version="1.0" encoding="iso-8859-1"?>
<!-- Uploaded to: SVG Repo, www.svgrepo.com, Generator: SVG Repo Mixer Tools -->
<svg fill="#000000" version="1.1" id="Layer_1" xmlns="http://www.w3.org/2000/svg" xmlns:xlink="http://www.w3.org/1999/xlink" 
	 viewBox="0 0 512 512" xml:space="preserve">
<g>
	<g>
		<path d="M75.89,512h311.862V127.733h48.033V0H75.89V512z M91.545,15.655h15.8v7.603h16.699v-7.603h296.084v96.423h-48.032v384.267
			H124.046v-7.599h-16.699v7.599H91.545V15.655z"/>
	</g>
</g>
<g>
	<g>
		<polygon points="420.455,135.977 420.455,240.347 395.406,240.347 395.406,256.002 436.11,256.002 436.11,135.977 		"/>
	</g>
</g>
<g>
	<g>
		<polygon points="420.455,264.352 420.455,368.721 395.406,368.721 395.406,384.376 436.11,384.376 436.11,264.352 		"/>
	</g>
</g>
<g>
	<g>
		<polygon points="420.455,391.682 420.455,496.051 395.406,496.051 395.406,511.707 436.11,511.707 436.11,391.682 		"/>
	</g>
</g>
<g>
	<g>
		<rect x="395.403" y="143.278" width="15.655" height="16.699"/>
	</g>
</g>
<g>
	<g>
		<rect x="395.403" y="176.676" width="15.655" height="15.655"/>
	</g>
</g>
<g>
	<g>
		<rect x="395.403" y="207.987" width="15.655" height="15.655"/>
	</g>
</g>
<g>
	<g>
		<rect x="395.403" y="23.259" width="15.655" height="16.699"/>
	</g>
</g>
<g>
	<g>
		<rect x="395.403" y="55.608" width="15.655" height="16.699"/>
	</g>
</g>
<g>
	<g>
		<rect x="395.403" y="87.962" width="15.655" height="16.699"/>
	</g>
</g>
<g>
	<g>
		<rect x="395.403" y="271.663" width="15.655" height="16.699"/>
	</g>
</g>
<g>
	<g>
		<rect x="395.403" y="304.017" width="15.655" height="15.655"/>
	</g>
</g>
<g>
	<g>
		<rect x="395.403" y="335.328" width="15.655" height="16.699"/>
	</g>
</g>
<g>
	<g>
		<rect x="395.403" y="400.037" width="15.655" height="16.699"/>
	</g>
</g>
<g>
	<g>
		<rect x="395.403" y="432.391" width="15.655" height="15.655"/>
	</g>
</g>
<g>
	<g>
		<rect x="395.403" y="463.702" width="15.655" height="16.699"/>
	</g>
</g>
<g>
	<g>
		<rect x="107.344" y="296.711" width="16.699" height="15.655"/>
	</g>
</g>
<g>
	<g>
		<rect x="107.344" y="231.992" width="16.699" height="15.655"/>
	</g>
</g>
<g>
	<g>
		<rect x="107.344" y="264.346" width="16.699" height="15.655"/>
	</g>
</g>
<g>
	<g>
		<rect x="107.344" y="199.637" width="16.699" height="15.655"/>
	</g>
</g>
<g>
	<g>
		<rect x="107.344" y="328.022" width="16.699" height="15.655"/>
	</g>
</g>
<g>
	<g>
		<rect x="107.344" y="360.377" width="16.699" height="15.655"/>
	</g>
</g>
<g>
	<g>
		<rect x="107.344" y="391.687" width="16.699" height="15.655"/>
	</g>
</g>
<g>
	<g>
		<rect x="107.344" y="456.396" width="16.699" height="15.655"/>
	</g>
</g>
<g>
	<g>
		<rect x="107.344" y="424.042" width="16.699" height="15.655"/>
	</g>
</g>
<g>
	<g>
		<rect x="107.344" y="135.972" width="16.699" height="15.655"/>
	</g>
</g>
<g>
	<g>
		<rect x="107.344" y="72.307" width="16.699" height="15.655"/>
	</g>
</g>
<g>
	<g>
		<rect x="107.344" y="39.953" width="16.699" height="15.655"/>
	</g>
</g>
<g>
	<g>
		<rect x="107.344" y="168.327" width="16.699" height="15.655"/>
	</g>
</g>
<g>
	<g>
		<rect x="107.344" y="104.661" width="16.699" height="15.655"/>
	</g>
</g>
<g>
	<g>
		<path d="M155.945,175.766h183.772V80.055H155.945V175.766z M171.601,95.711h152.462v64.4H171.601V95.711z"/>
	</g>
</g>
<g>
	<g>
		<rect x="196.058" y="120.317" width="104.369" height="15.655"/>
	</g>
</g>
<g>
	<g>
		<rect x="155.354" y="192.332" width="97.063" height="15.655"/>
	</g>
</g>
<g>
	<g>
		<rect x="155.354" y="224.686" width="56.359" height="15.655"/>
	</g>
</g>
<g>
	<g>
		<rect x="227.368" y="224.686" width="40.704" height="15.655"/>
	</g>
</g>
</svg>